<?xml version="1.0" encoding="UTF-8"?>
<svg width="200" height="100" viewBox="0 0 200 100"
     xmlns="http://www.w3.org/2000/svg">
  <!-- Shape path -->
  <path d="M 10.0,50.0 L 10.9,49.2 L 11.8,46.9 L 12.7,43.3 L 13.6,38.6 L 14.5,33.1 L 15.4,27.3 L 16.3,21.7 L 17.2,16.7 L 18.1,12.9 L 19.0,10.5 L 19.9,10.1 L 20.9,11.9 L 21.8,16.0 L 22.7,22.6 L 23.6,31.5 L 24.5,42.7 L 25.4,55.3 L 26.3,66.7 L 27.2,76.1 L 28.1,83.1 L 29.0,87.6 L 29.9,89.8 L 30.8,89.7 L 31.7,87.7 L 32.6,84.0 L 33.5,79.2 L 34.4,73.6 L 35.3,67.9 L 36.2,62.3 L 37.1,57.4 L 38.0,53.6 L 38.9,51.1 L 39.8,50.0 L 40.8,49.5 L 41.7,47.4 L 42.6,44.0 L 43.5,39.4 L 44.4,34.0 L 45.3,28.3 L 46.2,22.6 L 47.1,17.5 L 48.0,13.4 L 48.9,10.8 L 49.8,10.0 L 50.7,11.4 L 51.6,15.1 L 52.5,21.3 L 53.4,29.9 L 54.3,40.7 L 55.2,53.2 L 56.1,65.0 L 57.0,74.7 L 57.9,82.1 L 58.8,87.0 L 59.7,89.6 L 60.7,89.9 L 61.6,88.1 L 62.5,84.7 L 63.4,80.0 L 64.3,74.6 L 65.2,68.8 L 66.1,63.2 L 67.0,58.2 L 67.9,54.2 L 68.8,51.4 L 69.7,50.1 L 70.6,49.7 L 71.5,47.8 L 72.4,44.6 L 73.3,40.2 L 74.2,35.0 L 75.1,29.3 L 76.0,23.5 L 76.9,18.3 L 77.8,14.0 L 78.7,11.1 L 79.6,10.0 L 80.6,11.0 L 81.5,14.4 L 82.4,20.1 L 83.3,28.3 L 84.2,38.7 L 85.1,51.1 L 86.0,63.2 L 86.9,73.2 L 87.8,81.0 L 88.7,86.4 L 89.6,89.3 L 90.5,90.0 L 91.4,88.5 L 92.3,85.4 L 93.2,80.9 L 94.1,75.5 L 95.0,69.8 L 95.9,64.1 L 96.8,59.0 L 97.7,54.7 L 98.6,51.8 L 99.5,50.2 L 100.5,49.8 L 101.4,48.2 L 102.3,45.3 L 103.2,41.0 L 104.1,35.9 L 105.0,30.2 L 105.9,24.5 L 106.8,19.1 L 107.7,14.6 L 108.6,11.5 L 109.5,10.0 L 110.4,10.7 L 111.3,13.6 L 112.2,19.0 L 113.1,26.8 L 114.0,36.8 L 114.9,48.9 L 115.8,61.3 L 116.7,71.7 L 117.6,79.9 L 118.5,85.6 L 119.4,89.0 L 120.4,90.0 L 121.3,88.9 L 122.2,86.0 L 123.1,81.7 L 124.0,76.5 L 124.9,70.7 L 125.8,65.0 L 126.7,59.8 L 127.6,55.4 L 128.5,52.2 L 129.4,50.3 L 130.3,49.9 L 131.2,48.6 L 132.1,45.8 L 133.0,41.8 L 133.9,36.8 L 134.8,31.2 L 135.7,25.4 L 136.6,20.0 L 137.5,15.3 L 138.4,11.9 L 139.3,10.1 L 140.3,10.4 L 141.2,13.0 L 142.1,17.9 L 143.0,25.3 L 143.9,35.0 L 144.8,46.8 L 145.7,59.3 L 146.6,70.1 L 147.5,78.7 L 148.4,84.9 L 149.3,88.6 L 150.2,90.0 L 151.1,89.2 L 152.0,86.6 L 152.9,82.5 L 153.8,77.4 L 154.7,71.7 L 155.6,66.0 L 156.5,60.6 L 157.4,56.0 L 158.3,52.6 L 159.2,50.5 L 160.2,50.0 L 161.1,48.9 L 162.0,46.4 L 162.9,42.6 L 163.8,37.7 L 164.7,32.1 L 165.6,26.4 L 166.5,20.8 L 167.4,16.0 L 168.3,12.3 L 169.2,10.3 L 170.1,10.2 L 171.0,12.4 L 171.9,16.9 L 172.8,23.9 L 173.7,33.3 L 174.6,44.7 L 175.5,57.3 L 176.4,68.5 L 177.3,77.4 L 178.2,84.0 L 179.1,88.1 L 180.1,89.9 L 181.0,89.5 L 181.9,87.1 L 182.8,83.3 L 183.7,78.3 L 184.6,72.7 L 185.5,66.9 L 186.4,61.4 L 187.3,56.7 L 188.2,53.1 L 189.1,50.8 L 190.0,50.0" fill="none" stroke="#16a34a" stroke-width="2"
        stroke-linecap="round" stroke-linejoin="round"/>
</svg>