<?xml version="1.0" encoding="UTF-8"?>
<svg width="200" height="100" viewBox="0 0 200 100"
     xmlns="http://www.w3.org/2000/svg">
  <!-- Shape path -->
  <path d="M 10.0,50.0 L 10.9,56.3 L 11.8,62.4 L 12.7,68.2 L 13.6,73.6 L 14.5,78.4 L 15.4,82.5 L 16.3,85.7 L 17.2,88.1 L 18.1,89.5 L 19.0,90.0 L 19.9,89.5 L 20.9,87.9 L 21.8,85.5 L 22.7,82.1 L 23.6,78.0 L 24.5,73.1 L 25.4,67.7 L 26.3,61.8 L 27.2,55.7 L 28.1,49.4 L 29.0,43.1 L 29.9,37.0 L 30.8,31.2 L 31.7,25.9 L 32.6,21.2 L 33.5,17.2 L 34.4,14.0 L 35.3,11.7 L 36.2,10.4 L 37.1,10.0 L 38.0,10.7 L 38.9,12.3 L 39.8,14.8 L 40.8,18.3 L 41.7,22.5 L 42.6,27.4 L 43.5,32.9 L 44.4,38.8 L 45.3,44.9 L 46.2,51.2 L 47.1,57.5 L 48.0,63.6 L 48.9,69.3 L 49.8,74.6 L 50.7,79.2 L 51.6,83.2 L 52.5,86.3 L 53.4,88.5 L 54.3,89.7 L 55.2,90.0 L 56.1,89.2 L 57.0,87.5 L 57.9,84.9 L 58.8,81.3 L 59.7,77.1 L 60.7,72.1 L 61.6,66.6 L 62.5,60.6 L 63.4,54.4 L 64.3,48.1 L 65.2,41.9 L 66.1,35.8 L 67.0,30.1 L 67.9,24.9 L 68.8,20.3 L 69.7,16.5 L 70.6,13.5 L 71.5,11.4 L 72.4,10.2 L 73.3,10.1 L 74.2,10.9 L 75.1,12.7 L 76.0,15.4 L 76.9,19.0 L 77.8,23.4 L 78.7,28.4 L 79.6,34.0 L 80.6,40.0 L 81.5,46.2 L 82.4,52.5 L 83.3,58.7 L 84.2,64.8 L 85.1,70.4 L 86.0,75.6 L 86.9,80.1 L 87.8,83.9 L 88.7,86.8 L 89.6,88.8 L 90.5,89.8 L 91.4,89.9 L 92.3,89.0 L 93.2,87.1 L 94.1,84.2 L 95.0,80.6 L 95.9,76.1 L 96.8,71.0 L 97.7,65.4 L 98.6,59.4 L 99.5,53.2 L 100.5,46.9 L 101.4,40.6 L 102.3,34.6 L 103.2,29.0 L 104.1,23.9 L 105.0,19.5 L 105.9,15.8 L 106.8,13.0 L 107.7,11.0 L 108.6,10.1 L 109.5,10.1 L 110.4,11.2 L 111.3,13.2 L 112.2,16.1 L 113.1,19.9 L 114.0,24.4 L 114.9,29.5 L 115.8,35.2 L 116.7,41.2 L 117.6,47.4 L 118.5,53.8 L 119.4,60.0 L 120.4,65.9 L 121.3,71.5 L 122.2,76.5 L 123.1,80.9 L 124.0,84.5 L 124.9,87.3 L 125.8,89.1 L 126.7,89.9 L 127.6,89.8 L 128.5,88.7 L 129.4,86.6 L 130.3,83.6 L 131.2,79.7 L 132.1,75.1 L 133.0,69.9 L 133.9,64.2 L 134.8,58.2 L 135.7,51.9 L 136.6,45.6 L 137.5,39.4 L 138.4,33.5 L 139.3,28.0 L 140.3,23.0 L 141.2,18.7 L 142.1,15.2 L 143.0,12.5 L 143.9,10.8 L 144.8,10.0 L 145.7,10.3 L 146.6,11.5 L 147.5,13.7 L 148.4,16.8 L 149.3,20.7 L 150.2,25.4 L 151.1,30.6 L 152.0,36.4 L 152.9,42.4 L 153.8,48.7 L 154.7,55.0 L 155.6,61.2 L 156.5,67.1 L 157.4,72.6 L 158.3,77.5 L 159.2,81.7 L 160.2,85.1 L 161.1,87.7 L 162.0,89.3 L 162.9,90.0 L 163.8,89.6 L 164.7,88.3 L 165.6,86.0 L 166.5,82.9 L 167.4,78.9 L 168.3,74.1 L 169.2,68.8 L 170.1,63.0 L 171.0,56.9 L 171.9,50.7 L 172.8,44.4 L 173.7,38.2 L 174.6,32.3 L 175.5,26.9 L 176.4,22.1 L 177.3,17.9 L 178.2,14.6 L 179.1,12.1 L 180.1,10.6 L 181.0,10.0 L 181.9,10.4 L 182.8,11.9 L 183.7,14.2 L 184.6,17.5 L 185.5,21.6 L 186.4,26.4 L 187.3,31.7 L 188.2,37.5 L 189.1,43.7 L 190.0,50.0" fill="none" stroke="#16a34a" stroke-width="2"
        stroke-linecap="round" stroke-linejoin="round"/>
</svg>