<?xml version="1.0" encoding="UTF-8"?>
<svg width="200" height="100" viewBox="0 0 200 100"
     xmlns="http://www.w3.org/2000/svg">
  <!-- Shape path -->
  <path d="M 10.0,10.0 L 11.8,10.8 L 13.6,11.6 L 15.5,12.4 L 17.3,13.2 L 19.1,14.0 L 20.9,14.8 L 22.7,15.7 L 24.5,16.5 L 26.4,17.3 L 28.2,18.1 L 30.0,18.9 L 31.8,19.7 L 33.6,20.5 L 35.5,21.3 L 37.3,22.1 L 39.1,22.9 L 40.9,23.7 L 42.7,24.5 L 44.5,25.4 L 46.4,26.2 L 48.2,27.0 L 50.0,27.8 L 51.8,28.6 L 53.6,29.4 L 55.5,30.2 L 57.3,31.0 L 59.1,31.8 L 60.9,32.6 L 62.7,33.4 L 64.5,34.2 L 66.4,35.1 L 68.2,35.9 L 70.0,36.7 L 71.8,37.5 L 73.6,38.3 L 75.5,39.1 L 77.3,39.9 L 79.1,40.7 L 80.9,41.5 L 82.7,42.3 L 84.5,43.1 L 86.4,43.9 L 88.2,44.7 L 90.0,45.6 L 91.8,46.4 L 93.6,47.2 L 95.5,48.0 L 97.3,48.8 L 99.1,49.6 L 100.9,50.4 L 102.7,51.2 L 104.5,52.0 L 106.4,52.8 L 108.2,53.6 L 110.0,54.4 L 111.8,55.3 L 113.6,56.1 L 115.5,56.9 L 117.3,57.7 L 119.1,58.5 L 120.9,59.3 L 122.7,60.1 L 124.5,60.9 L 126.4,61.7 L 128.2,62.5 L 130.0,63.3 L 131.8,64.1 L 133.6,64.9 L 135.5,65.8 L 137.3,66.6 L 139.1,67.4 L 140.9,68.2 L 142.7,69.0 L 144.5,69.8 L 146.4,70.6 L 148.2,71.4 L 150.0,72.2 L 151.8,73.0 L 153.6,73.8 L 155.5,74.6 L 157.3,75.5 L 159.1,76.3 L 160.9,77.1 L 162.7,77.9 L 164.5,78.7 L 166.4,79.5 L 168.2,80.3 L 170.0,81.1 L 171.8,81.9 L 173.6,82.7 L 175.5,83.5 L 177.3,84.3 L 179.1,85.2 L 180.9,86.0 L 182.7,86.8 L 184.5,87.6 L 186.4,88.4 L 188.2,89.2 L 190.0,90.0" fill="none" stroke="#16a34a" stroke-width="2"
        stroke-linecap="round" stroke-linejoin="round"/>
</svg>