<?xml version="1.0" encoding="UTF-8"?>
<svg width="200" height="100" viewBox="0 0 200 100"
     xmlns="http://www.w3.org/2000/svg">
  <!-- Shape path -->
  <path d="M 10.0,90.0 L 11.8,89.2 L 13.6,88.4 L 15.5,87.6 L 17.3,86.8 L 19.1,86.0 L 20.9,85.2 L 22.7,84.3 L 24.5,83.5 L 26.4,82.7 L 28.2,81.9 L 30.0,81.1 L 31.8,80.3 L 33.6,79.5 L 35.5,78.7 L 37.3,77.9 L 39.1,77.1 L 40.9,76.3 L 42.7,75.5 L 44.5,74.6 L 46.4,73.8 L 48.2,73.0 L 50.0,72.2 L 51.8,71.4 L 53.6,70.6 L 55.5,69.8 L 57.3,69.0 L 59.1,68.2 L 60.9,67.4 L 62.7,66.6 L 64.5,65.8 L 66.4,64.9 L 68.2,64.1 L 70.0,63.3 L 71.8,62.5 L 73.6,61.7 L 75.5,60.9 L 77.3,60.1 L 79.1,59.3 L 80.9,58.5 L 82.7,57.7 L 84.5,56.9 L 86.4,56.1 L 88.2,55.3 L 90.0,54.4 L 91.8,53.6 L 93.6,52.8 L 95.5,52.0 L 97.3,51.2 L 99.1,50.4 L 100.9,49.6 L 102.7,48.8 L 104.5,48.0 L 106.4,47.2 L 108.2,46.4 L 110.0,45.6 L 111.8,44.7 L 113.6,43.9 L 115.5,43.1 L 117.3,42.3 L 119.1,41.5 L 120.9,40.7 L 122.7,39.9 L 124.5,39.1 L 126.4,38.3 L 128.2,37.5 L 130.0,36.7 L 131.8,35.9 L 133.6,35.1 L 135.5,34.2 L 137.3,33.4 L 139.1,32.6 L 140.9,31.8 L 142.7,31.0 L 144.5,30.2 L 146.4,29.4 L 148.2,28.6 L 150.0,27.8 L 151.8,27.0 L 153.6,26.2 L 155.5,25.4 L 157.3,24.5 L 159.1,23.7 L 160.9,22.9 L 162.7,22.1 L 164.5,21.3 L 166.4,20.5 L 168.2,19.7 L 170.0,18.9 L 171.8,18.1 L 173.6,17.3 L 175.5,16.5 L 177.3,15.7 L 179.1,14.8 L 180.9,14.0 L 182.7,13.2 L 184.5,12.4 L 186.4,11.6 L 188.2,10.8 L 190.0,10.0" fill="none" stroke="#16a34a" stroke-width="2"
        stroke-linecap="round" stroke-linejoin="round"/>
</svg>