<?xml version="1.0" encoding="UTF-8"?>
<svg width="200" height="100" viewBox="0 0 200 100"
     xmlns="http://www.w3.org/2000/svg">
  <!-- Shape path -->
  <path d="M 10.0,52.2 L 10.9,52.3 L 11.8,52.4 L 12.7,52.5 L 13.6,52.8 L 14.5,53.0 L 15.4,53.3 L 16.3,53.6 L 17.2,53.9 L 18.1,54.2 L 19.0,54.5 L 19.9,54.7 L 20.9,54.8 L 21.8,54.8 L 22.7,54.8 L 23.6,54.6 L 24.5,54.3 L 25.4,53.9 L 26.3,53.4 L 27.2,52.8 L 28.1,52.2 L 29.0,51.4 L 29.9,50.6 L 30.8,49.8 L 31.7,49.0 L 32.6,48.2 L 33.5,47.5 L 34.4,46.8 L 35.3,46.2 L 36.2,45.8 L 37.1,45.5 L 38.0,45.4 L 38.9,45.5 L 39.8,45.8 L 40.8,46.2 L 41.7,46.9 L 42.6,47.7 L 43.5,48.7 L 44.4,49.9 L 45.3,51.1 L 46.2,52.5 L 47.1,54.0 L 48.0,55.4 L 48.9,56.9 L 49.8,58.3 L 50.7,59.6 L 51.6,60.8 L 52.5,61.8 L 53.4,62.6 L 54.3,63.1 L 55.2,63.4 L 56.1,63.4 L 57.0,63.1 L 57.9,62.6 L 58.8,61.7 L 59.7,60.6 L 60.7,59.2 L 61.6,57.5 L 62.5,55.7 L 63.4,53.7 L 64.3,51.6 L 65.2,49.5 L 66.1,47.3 L 67.0,45.2 L 67.9,43.3 L 68.8,41.5 L 69.7,39.9 L 70.6,38.6 L 71.5,37.6 L 72.4,36.9 L 73.3,36.6 L 74.2,36.7 L 75.1,37.2 L 76.0,38.1 L 76.9,39.4 L 77.8,41.1 L 78.7,43.1 L 79.6,45.4 L 80.6,47.9 L 81.5,50.6 L 82.4,53.4 L 83.3,56.2 L 84.2,59.0 L 85.1,61.7 L 86.0,64.2 L 86.9,66.5 L 87.8,68.5 L 88.7,70.1 L 89.6,71.3 L 90.5,72.1 L 91.4,72.3 L 92.3,72.1 L 93.2,71.3 L 94.1,70.0 L 95.0,68.3 L 95.9,66.1 L 96.8,63.5 L 97.7,60.6 L 98.6,57.4 L 99.5,54.0 L 100.5,50.5 L 101.4,47.0 L 102.3,43.5 L 103.2,40.2 L 104.1,37.1 L 105.0,34.3 L 105.9,32.0 L 106.8,30.1 L 107.7,28.7 L 108.6,27.9 L 109.5,27.7 L 110.4,28.2 L 111.3,29.2 L 112.2,30.8 L 113.1,33.0 L 114.0,35.8 L 114.9,39.0 L 115.8,42.5 L 116.7,46.4 L 117.6,50.5 L 118.5,54.8 L 119.4,59.0 L 120.4,63.1 L 121.3,67.0 L 122.2,70.6 L 123.1,73.8 L 124.0,76.5 L 124.9,78.7 L 125.8,80.2 L 126.7,81.0 L 127.6,81.1 L 128.5,80.5 L 129.4,79.2 L 130.3,77.2 L 131.2,74.5 L 132.1,71.2 L 133.0,67.4 L 133.9,63.1 L 134.8,58.5 L 135.7,53.7 L 136.6,48.8 L 137.5,43.9 L 138.4,39.1 L 139.3,34.6 L 140.3,30.5 L 141.2,26.9 L 142.1,23.8 L 143.0,21.4 L 143.9,19.8 L 144.8,19.0 L 145.7,18.9 L 146.6,19.8 L 147.5,21.4 L 148.4,23.8 L 149.3,27.0 L 150.2,30.9 L 151.1,35.3 L 152.0,40.3 L 152.9,45.6 L 153.8,51.1 L 154.7,56.7 L 155.6,62.3 L 156.5,67.7 L 157.4,72.8 L 158.3,77.4 L 159.2,81.5 L 160.2,84.8 L 161.1,87.4 L 162.0,89.2 L 162.9,90.0 L 163.8,89.9 L 164.7,88.8 L 165.6,86.9 L 166.5,84.0 L 167.4,80.3 L 168.3,75.8 L 169.2,70.8 L 170.1,65.1 L 171.0,59.1 L 171.9,52.9 L 172.8,46.6 L 173.7,40.3 L 174.6,34.3 L 175.5,28.6 L 176.4,23.5 L 177.3,19.1 L 178.2,15.4 L 179.1,12.6 L 180.1,10.8 L 181.0,10.0 L 181.9,10.2 L 182.8,11.5 L 183.7,13.9 L 184.6,17.2 L 185.5,21.4 L 186.4,26.5 L 187.3,32.2 L 188.2,38.5 L 189.1,45.2 L 190.0,52.2" fill="none" stroke="#16a34a" stroke-width="2"
        stroke-linecap="round" stroke-linejoin="round"/>
</svg>