<?xml version="1.0" encoding="UTF-8"?>
<svg width="200" height="100" viewBox="0 0 200 100"
     xmlns="http://www.w3.org/2000/svg">
  <!-- Shape path -->
  <path d="M 10.0,52.1 L 10.9,51.9 L 11.8,51.7 L 12.7,51.6 L 13.6,51.4 L 14.5,51.4 L 15.4,51.4 L 16.3,51.5 L 17.2,51.6 L 18.1,51.8 L 19.0,52.1 L 19.9,52.5 L 20.9,52.9 L 21.8,53.4 L 22.7,53.9 L 23.6,54.4 L 24.5,54.9 L 25.4,55.3 L 26.3,55.8 L 27.2,56.1 L 28.1,56.4 L 29.0,56.5 L 29.9,56.5 L 30.8,56.4 L 31.7,56.2 L 32.6,55.8 L 33.5,55.3 L 34.4,54.6 L 35.3,53.8 L 36.2,52.9 L 37.1,52.0 L 38.0,50.9 L 38.9,49.9 L 39.8,48.8 L 40.8,47.7 L 41.7,46.7 L 42.6,45.8 L 43.5,45.0 L 44.4,44.4 L 45.3,43.9 L 46.2,43.7 L 47.1,43.6 L 48.0,43.8 L 48.9,44.2 L 49.8,44.8 L 50.7,45.6 L 51.6,46.7 L 52.5,47.9 L 53.4,49.3 L 54.3,50.9 L 55.2,52.5 L 56.1,54.2 L 57.0,55.9 L 57.9,57.6 L 58.8,59.2 L 59.7,60.7 L 60.7,62.0 L 61.6,63.1 L 62.5,64.0 L 63.4,64.5 L 64.3,64.8 L 65.2,64.8 L 66.1,64.4 L 67.0,63.7 L 67.9,62.7 L 68.8,61.3 L 69.7,59.7 L 70.6,57.9 L 71.5,55.8 L 72.4,53.6 L 73.3,51.3 L 74.2,48.9 L 75.1,46.6 L 76.0,44.3 L 76.9,42.2 L 77.8,40.2 L 78.7,38.6 L 79.6,37.2 L 80.6,36.1 L 81.5,35.5 L 82.4,35.2 L 83.3,35.4 L 84.2,36.0 L 85.1,37.0 L 86.0,38.5 L 86.9,40.3 L 87.8,42.4 L 88.7,44.9 L 89.6,47.6 L 90.5,50.5 L 91.4,53.5 L 92.3,56.5 L 93.2,59.5 L 94.1,62.3 L 95.0,65.0 L 95.9,67.4 L 96.8,69.4 L 97.7,71.1 L 98.6,72.3 L 99.5,73.0 L 100.5,73.2 L 101.4,72.9 L 102.3,72.0 L 103.2,70.7 L 104.1,68.8 L 105.0,66.5 L 105.9,63.7 L 106.8,60.7 L 107.7,57.3 L 108.6,53.8 L 109.5,50.1 L 110.4,46.4 L 111.3,42.8 L 112.2,39.4 L 113.1,36.2 L 114.0,33.4 L 114.9,31.0 L 115.8,29.1 L 116.7,27.8 L 117.6,27.0 L 118.5,26.8 L 119.4,27.3 L 120.4,28.4 L 121.3,30.2 L 122.2,32.5 L 123.1,35.3 L 124.0,38.7 L 124.9,42.4 L 125.8,46.4 L 126.7,50.6 L 127.6,54.9 L 128.5,59.3 L 129.4,63.5 L 130.3,67.5 L 131.2,71.1 L 132.1,74.4 L 133.0,77.1 L 133.9,79.2 L 134.8,80.7 L 135.7,81.5 L 136.6,81.6 L 137.5,80.9 L 138.4,79.5 L 139.3,77.4 L 140.3,74.6 L 141.2,71.2 L 142.1,67.3 L 143.0,62.9 L 143.9,58.3 L 144.8,53.4 L 145.7,48.4 L 146.6,43.4 L 147.5,38.6 L 148.4,34.0 L 149.3,29.9 L 150.2,26.3 L 151.1,23.2 L 152.0,20.9 L 152.9,19.3 L 153.8,18.5 L 154.7,18.5 L 155.6,19.4 L 156.5,21.1 L 157.4,23.6 L 158.3,26.9 L 159.2,30.8 L 160.2,35.4 L 161.1,40.4 L 162.0,45.7 L 162.9,51.3 L 163.8,56.9 L 164.7,62.5 L 165.6,68.0 L 166.5,73.0 L 167.4,77.6 L 168.3,81.7 L 169.2,85.0 L 170.1,87.5 L 171.0,89.2 L 171.9,90.0 L 172.8,89.8 L 173.7,88.7 L 174.6,86.7 L 175.5,83.7 L 176.4,80.0 L 177.3,75.5 L 178.2,70.4 L 179.1,64.7 L 180.1,58.7 L 181.0,52.4 L 181.9,46.1 L 182.8,39.9 L 183.7,33.9 L 184.6,28.3 L 185.5,23.2 L 186.4,18.8 L 187.3,15.2 L 188.2,12.5 L 189.1,10.7 L 190.0,10.0" fill="none" stroke="#16a34a" stroke-width="2"
        stroke-linecap="round" stroke-linejoin="round"/>
</svg>