<?xml version="1.0" encoding="UTF-8"?>
<svg width="200" height="100" viewBox="0 0 200 100"
     xmlns="http://www.w3.org/2000/svg">
  <!-- Shape path -->
  <path d="M 10.0,90.0 L 11.8,85.8 L 13.6,81.6 L 15.5,77.4 L 17.3,73.2 L 19.1,68.9 L 20.9,64.7 L 22.7,60.5 L 24.5,56.3 L 26.4,52.1 L 28.2,47.9 L 30.0,43.7 L 31.8,39.5 L 33.6,35.3 L 35.5,31.1 L 37.3,26.8 L 39.1,22.6 L 40.9,18.4 L 42.7,14.2 L 44.5,10.0 L 46.4,10.0 L 48.2,10.0 L 50.0,10.0 L 51.8,10.0 L 53.6,10.0 L 55.5,10.0 L 57.3,10.0 L 59.1,10.0 L 60.9,10.0 L 62.7,10.0 L 64.5,10.0 L 66.4,10.0 L 68.2,10.0 L 70.0,10.0 L 71.8,10.0 L 73.6,10.0 L 75.5,10.0 L 77.3,10.0 L 79.1,10.0 L 80.9,10.0 L 82.7,10.0 L 84.5,10.0 L 86.4,10.0 L 88.2,10.0 L 90.0,10.0 L 91.8,10.0 L 93.6,10.0 L 95.5,10.0 L 97.3,10.0 L 99.1,10.0 L 100.9,10.0 L 102.7,10.0 L 104.5,10.0 L 106.4,10.0 L 108.2,10.0 L 110.0,10.0 L 111.8,10.0 L 113.6,10.0 L 115.5,10.0 L 117.3,10.0 L 119.1,10.0 L 120.9,10.0 L 122.7,10.0 L 124.5,10.0 L 126.4,10.0 L 128.2,10.0 L 130.0,10.0 L 131.8,10.0 L 133.6,10.0 L 135.5,10.0 L 137.3,10.0 L 139.1,10.0 L 140.9,10.0 L 142.7,10.0 L 144.5,10.0 L 146.4,10.0 L 148.2,10.0 L 150.0,10.0 L 151.8,10.0 L 153.6,10.0 L 155.5,10.0 L 157.3,14.2 L 159.1,18.4 L 160.9,22.6 L 162.7,26.8 L 164.5,31.1 L 166.4,35.3 L 168.2,39.5 L 170.0,43.7 L 171.8,47.9 L 173.6,52.1 L 175.5,56.3 L 177.3,60.5 L 179.1,64.7 L 180.9,68.9 L 182.7,73.2 L 184.5,77.4 L 186.4,81.6 L 188.2,85.8 L 190.0,90.0" fill="none" stroke="#16a34a" stroke-width="2"
        stroke-linecap="round" stroke-linejoin="round"/>
</svg>