<?xml version="1.0" encoding="UTF-8"?>
<svg width="200" height="100" viewBox="0 0 200 100"
     xmlns="http://www.w3.org/2000/svg">
  <!-- Shape path -->
  <path d="M 10.0,58.2 L 10.9,58.2 L 11.8,58.2 L 12.7,58.3 L 13.6,58.5 L 14.5,58.7 L 15.4,59.0 L 16.3,59.3 L 17.2,59.6 L 18.1,59.9 L 19.0,60.2 L 19.9,60.4 L 20.9,60.6 L 21.8,60.6 L 22.7,60.6 L 23.6,60.4 L 24.5,60.2 L 25.4,59.8 L 26.3,59.4 L 27.2,58.9 L 28.1,58.4 L 29.0,57.9 L 29.9,57.4 L 30.8,57.0 L 31.7,56.7 L 32.6,56.6 L 33.5,56.6 L 34.4,56.7 L 35.3,57.1 L 36.2,57.6 L 37.1,58.2 L 38.0,59.0 L 38.9,59.8 L 39.8,60.7 L 40.8,61.5 L 41.7,62.2 L 42.6,62.8 L 43.5,63.2 L 44.4,63.3 L 45.3,63.1 L 46.2,62.7 L 47.1,62.0 L 48.0,61.0 L 48.9,59.8 L 49.8,58.4 L 50.7,57.0 L 51.6,55.7 L 52.5,54.4 L 53.4,53.3 L 54.3,52.6 L 55.2,52.2 L 56.1,52.3 L 57.0,52.8 L 57.9,53.8 L 58.8,55.2 L 59.7,57.0 L 60.7,59.2 L 61.6,61.4 L 62.5,63.8 L 63.4,66.0 L 64.3,67.9 L 65.2,69.3 L 66.1,70.3 L 67.0,70.5 L 67.9,70.0 L 68.8,68.7 L 69.7,66.6 L 70.6,63.8 L 71.5,60.5 L 72.4,56.9 L 73.3,53.0 L 74.2,49.3 L 75.1,45.9 L 76.0,43.1 L 76.9,41.2 L 77.8,40.3 L 78.7,40.6 L 79.6,42.2 L 80.6,45.1 L 81.5,49.1 L 82.4,54.2 L 83.3,60.0 L 84.2,66.3 L 85.1,72.6 L 86.0,78.5 L 86.9,83.5 L 87.8,87.4 L 88.7,89.6 L 89.6,90.0 L 90.5,88.3 L 91.4,84.5 L 92.3,78.6 L 93.2,71.0 L 94.1,61.8 L 95.0,51.8 L 95.9,41.4 L 96.8,31.3 L 97.7,22.2 L 98.6,14.9 L 99.5,10.0 L 100.5,10.0 L 101.4,14.9 L 102.3,22.2 L 103.2,31.3 L 104.1,41.4 L 105.0,51.8 L 105.9,61.8 L 106.8,71.0 L 107.7,78.6 L 108.6,84.5 L 109.5,88.3 L 110.4,90.0 L 111.3,89.6 L 112.2,87.4 L 113.1,83.5 L 114.0,78.5 L 114.9,72.6 L 115.8,66.3 L 116.7,60.0 L 117.6,54.2 L 118.5,49.1 L 119.4,45.1 L 120.4,42.2 L 121.3,40.6 L 122.2,40.3 L 123.1,41.2 L 124.0,43.1 L 124.9,45.9 L 125.8,49.3 L 126.7,53.0 L 127.6,56.9 L 128.5,60.5 L 129.4,63.8 L 130.3,66.6 L 131.2,68.7 L 132.1,70.0 L 133.0,70.5 L 133.9,70.3 L 134.8,69.3 L 135.7,67.9 L 136.6,66.0 L 137.5,63.8 L 138.4,61.4 L 139.3,59.2 L 140.3,57.0 L 141.2,55.2 L 142.1,53.8 L 143.0,52.8 L 143.9,52.3 L 144.8,52.2 L 145.7,52.6 L 146.6,53.3 L 147.5,54.4 L 148.4,55.7 L 149.3,57.0 L 150.2,58.4 L 151.1,59.8 L 152.0,61.0 L 152.9,62.0 L 153.8,62.7 L 154.7,63.1 L 155.6,63.3 L 156.5,63.2 L 157.4,62.8 L 158.3,62.2 L 159.2,61.5 L 160.2,60.7 L 161.1,59.8 L 162.0,59.0 L 162.9,58.2 L 163.8,57.6 L 164.7,57.1 L 165.6,56.7 L 166.5,56.6 L 167.4,56.6 L 168.3,56.7 L 169.2,57.0 L 170.1,57.4 L 171.0,57.9 L 171.9,58.4 L 172.8,58.9 L 173.7,59.4 L 174.6,59.8 L 175.5,60.2 L 176.4,60.4 L 177.3,60.6 L 178.2,60.6 L 179.1,60.6 L 180.1,60.4 L 181.0,60.2 L 181.9,59.9 L 182.8,59.6 L 183.7,59.3 L 184.6,59.0 L 185.5,58.7 L 186.4,58.5 L 187.3,58.3 L 188.2,58.2 L 189.1,58.2 L 190.0,58.2" fill="none" stroke="#dc2626" stroke-width="2"
        stroke-linecap="round" stroke-linejoin="round"/>
</svg>