<?xml version="1.0" encoding="UTF-8"?>
<svg width="200" height="100" viewBox="0 0 200 100"
     xmlns="http://www.w3.org/2000/svg">
  <!-- Shape path -->
  <path d="M 10.0,10.0 L 10.9,12.4 L 11.8,16.3 L 12.7,21.5 L 13.6,27.8 L 14.5,34.8 L 15.4,42.3 L 16.3,49.9 L 17.2,57.5 L 18.1,64.8 L 19.0,71.4 L 19.9,77.2 L 20.9,82.1 L 21.8,85.8 L 22.7,88.4 L 23.6,89.8 L 24.5,90.0 L 25.4,89.0 L 26.3,87.0 L 27.2,84.1 L 28.1,80.3 L 29.0,76.0 L 29.9,71.2 L 30.8,66.2 L 31.7,61.1 L 32.6,56.2 L 33.5,51.6 L 34.4,47.4 L 35.3,43.8 L 36.2,40.9 L 37.1,38.8 L 38.0,37.4 L 38.9,36.8 L 39.8,37.0 L 40.8,37.9 L 41.7,39.5 L 42.6,41.7 L 43.5,44.4 L 44.4,47.4 L 45.3,50.6 L 46.2,53.9 L 47.1,57.2 L 48.0,60.4 L 48.9,63.3 L 49.8,65.9 L 50.7,68.1 L 51.6,69.8 L 52.5,71.1 L 53.4,71.7 L 54.3,71.9 L 55.2,71.6 L 56.1,70.8 L 57.0,69.5 L 57.9,68.0 L 58.8,66.1 L 59.7,64.1 L 60.7,61.9 L 61.6,59.7 L 62.5,57.6 L 63.4,55.5 L 64.3,53.7 L 65.2,52.1 L 66.1,50.7 L 67.0,49.7 L 67.9,49.1 L 68.8,48.8 L 69.7,48.8 L 70.6,49.2 L 71.5,49.8 L 72.4,50.7 L 73.3,51.8 L 74.2,53.1 L 75.1,54.5 L 76.0,56.0 L 76.9,57.4 L 77.8,58.8 L 78.7,60.1 L 79.6,61.2 L 80.6,62.2 L 81.5,63.0 L 82.4,63.6 L 83.3,63.9 L 84.2,64.0 L 85.1,63.9 L 86.0,63.6 L 86.9,63.1 L 87.8,62.4 L 88.7,61.6 L 89.6,60.8 L 90.5,59.8 L 91.4,58.9 L 92.3,57.9 L 93.2,57.0 L 94.1,56.2 L 95.0,55.5 L 95.9,54.9 L 96.8,54.5 L 97.7,54.1 L 98.6,54.0 L 99.5,54.0 L 100.5,54.1 L 101.4,54.4 L 102.3,54.7 L 103.2,55.2 L 104.1,55.8 L 105.0,56.4 L 105.9,57.0 L 106.8,57.6 L 107.7,58.2 L 108.6,58.8 L 109.5,59.3 L 110.4,59.7 L 111.3,60.1 L 112.2,60.4 L 113.1,60.5 L 114.0,60.6 L 114.9,60.6 L 115.8,60.4 L 116.7,60.2 L 117.6,60.0 L 118.5,59.6 L 119.4,59.2 L 120.4,58.8 L 121.3,58.4 L 122.2,58.0 L 123.1,57.6 L 124.0,57.3 L 124.9,56.9 L 125.8,56.7 L 126.7,56.5 L 127.6,56.3 L 128.5,56.2 L 129.4,56.2 L 130.3,56.3 L 131.2,56.4 L 132.1,56.5 L 133.0,56.7 L 133.9,57.0 L 134.8,57.2 L 135.7,57.5 L 136.6,57.8 L 137.5,58.0 L 138.4,58.3 L 139.3,58.5 L 140.3,58.7 L 141.2,58.9 L 142.1,59.0 L 143.0,59.1 L 143.9,59.1 L 144.8,59.1 L 145.7,59.0 L 146.6,59.0 L 147.5,58.8 L 148.4,58.7 L 149.3,58.5 L 150.2,58.4 L 151.1,58.2 L 152.0,58.0 L 152.9,57.8 L 153.8,57.7 L 154.7,57.5 L 155.6,57.4 L 156.5,57.3 L 157.4,57.3 L 158.3,57.2 L 159.2,57.2 L 160.2,57.2 L 161.1,57.3 L 162.0,57.3 L 162.9,57.4 L 163.8,57.5 L 164.7,57.6 L 165.6,57.7 L 166.5,57.9 L 167.4,58.0 L 168.3,58.1 L 169.2,58.2 L 170.1,58.3 L 171.0,58.3 L 171.9,58.4 L 172.8,58.4 L 173.7,58.5 L 174.6,58.5 L 175.5,58.4 L 176.4,58.4 L 177.3,58.4 L 178.2,58.3 L 179.1,58.2 L 180.1,58.1 L 181.0,58.1 L 181.9,58.0 L 182.8,57.9 L 183.7,57.8 L 184.6,57.8 L 185.5,57.7 L 186.4,57.7 L 187.3,57.7 L 188.2,57.6 L 189.1,57.6 L 190.0,57.6" fill="none" stroke="#dc2626" stroke-width="2"
        stroke-linecap="round" stroke-linejoin="round"/>
</svg>