<?xml version="1.0" encoding="UTF-8"?>
<svg width="200" height="100" viewBox="0 0 200 100"
     xmlns="http://www.w3.org/2000/svg">
  <!-- Shape path -->
  <path d="M 10.0,90.0 L 11.8,88.1 L 13.6,86.3 L 15.5,84.6 L 17.3,82.8 L 19.1,81.1 L 20.9,79.4 L 22.7,77.8 L 24.5,76.2 L 26.4,74.6 L 28.2,73.1 L 30.0,71.6 L 31.8,70.1 L 33.6,68.6 L 35.5,67.2 L 37.3,65.8 L 39.1,64.4 L 40.9,63.1 L 42.7,61.8 L 44.5,60.5 L 46.4,59.2 L 48.2,58.0 L 50.0,56.8 L 51.8,55.6 L 53.6,54.5 L 55.5,53.3 L 57.3,52.2 L 59.1,51.1 L 60.9,50.0 L 62.7,49.0 L 64.5,47.9 L 66.4,46.9 L 68.2,46.0 L 70.0,45.0 L 71.8,44.0 L 73.6,43.1 L 75.5,42.2 L 77.3,41.3 L 79.1,40.4 L 80.9,39.6 L 82.7,38.7 L 84.5,37.9 L 86.4,37.1 L 88.2,36.3 L 90.0,35.5 L 91.8,34.8 L 93.6,34.0 L 95.5,33.3 L 97.3,32.6 L 99.1,31.9 L 100.9,31.2 L 102.7,30.5 L 104.5,29.8 L 106.4,29.2 L 108.2,28.6 L 110.0,27.9 L 111.8,27.3 L 113.6,26.7 L 115.5,26.1 L 117.3,25.6 L 119.1,25.0 L 120.9,24.5 L 122.7,23.9 L 124.5,23.4 L 126.4,22.9 L 128.2,22.4 L 130.0,21.9 L 131.8,21.4 L 133.6,20.9 L 135.5,20.4 L 137.3,20.0 L 139.1,19.5 L 140.9,19.1 L 142.7,18.7 L 144.5,18.2 L 146.4,17.8 L 148.2,17.4 L 150.0,17.0 L 151.8,16.6 L 153.6,16.2 L 155.5,15.9 L 157.3,15.5 L 159.1,15.1 L 160.9,14.8 L 162.7,14.4 L 164.5,14.1 L 166.4,13.8 L 168.2,13.4 L 170.0,13.1 L 171.8,12.8 L 173.6,12.5 L 175.5,12.2 L 177.3,11.9 L 179.1,11.6 L 180.9,11.3 L 182.7,11.1 L 184.5,10.8 L 186.4,10.5 L 188.2,10.3 L 190.0,10.0" fill="none" stroke="#dc2626" stroke-width="2"
        stroke-linecap="round" stroke-linejoin="round"/>
</svg>