<?xml version="1.0" encoding="UTF-8"?>
<svg width="200" height="100" viewBox="0 0 200 100"
     xmlns="http://www.w3.org/2000/svg">
  <!-- Shape path -->
  <path d="M 10.0,90.0 L 10.9,90.0 L 11.8,90.0 L 12.7,90.0 L 13.6,90.0 L 14.5,90.0 L 15.4,90.0 L 16.3,90.0 L 17.2,90.0 L 18.1,90.0 L 19.0,90.0 L 19.9,90.0 L 20.9,90.0 L 21.8,90.0 L 22.7,90.0 L 23.6,90.0 L 24.5,90.0 L 25.4,90.0 L 26.3,90.0 L 27.2,90.0 L 28.1,90.0 L 29.0,89.9 L 29.9,89.9 L 30.8,89.9 L 31.7,89.9 L 32.6,89.9 L 33.5,89.9 L 34.4,89.9 L 35.3,89.9 L 36.2,89.9 L 37.1,89.9 L 38.0,89.8 L 38.9,89.8 L 39.8,89.8 L 40.8,89.8 L 41.7,89.8 L 42.6,89.7 L 43.5,89.7 L 44.4,89.7 L 45.3,89.6 L 46.2,89.6 L 47.1,89.6 L 48.0,89.5 L 48.9,89.5 L 49.8,89.4 L 50.7,89.3 L 51.6,89.3 L 52.5,89.2 L 53.4,89.1 L 54.3,89.0 L 55.2,88.9 L 56.1,88.8 L 57.0,88.7 L 57.9,88.5 L 58.8,88.4 L 59.7,88.2 L 60.7,88.0 L 61.6,87.8 L 62.5,87.5 L 63.4,87.3 L 64.3,87.0 L 65.2,86.7 L 66.1,86.3 L 67.0,85.9 L 67.9,85.5 L 68.8,85.0 L 69.7,84.5 L 70.6,83.9 L 71.5,83.3 L 72.4,82.6 L 73.3,81.8 L 74.2,80.9 L 75.1,79.9 L 76.0,78.9 L 76.9,77.7 L 77.8,76.4 L 78.7,75.0 L 79.6,73.5 L 80.6,71.8 L 81.5,69.9 L 82.4,67.9 L 83.3,65.6 L 84.2,63.2 L 85.1,60.6 L 86.0,57.7 L 86.9,54.6 L 87.8,51.3 L 88.7,47.8 L 89.6,44.1 L 90.5,40.3 L 91.4,36.3 L 92.3,32.3 L 93.2,28.3 L 94.1,24.4 L 95.0,20.8 L 95.9,17.4 L 96.8,14.6 L 97.7,12.4 L 98.6,10.8 L 99.5,10.0 L 100.5,10.0 L 101.4,10.8 L 102.3,12.4 L 103.2,14.6 L 104.1,17.4 L 105.0,20.8 L 105.9,24.4 L 106.8,28.3 L 107.7,32.3 L 108.6,36.3 L 109.5,40.3 L 110.4,44.1 L 111.3,47.8 L 112.2,51.3 L 113.1,54.6 L 114.0,57.7 L 114.9,60.6 L 115.8,63.2 L 116.7,65.6 L 117.6,67.9 L 118.5,69.9 L 119.4,71.8 L 120.4,73.5 L 121.3,75.0 L 122.2,76.4 L 123.1,77.7 L 124.0,78.9 L 124.9,79.9 L 125.8,80.9 L 126.7,81.8 L 127.6,82.6 L 128.5,83.3 L 129.4,83.9 L 130.3,84.5 L 131.2,85.0 L 132.1,85.5 L 133.0,85.9 L 133.9,86.3 L 134.8,86.7 L 135.7,87.0 L 136.6,87.3 L 137.5,87.5 L 138.4,87.8 L 139.3,88.0 L 140.3,88.2 L 141.2,88.4 L 142.1,88.5 L 143.0,88.7 L 143.9,88.8 L 144.8,88.9 L 145.7,89.0 L 146.6,89.1 L 147.5,89.2 L 148.4,89.3 L 149.3,89.3 L 150.2,89.4 L 151.1,89.5 L 152.0,89.5 L 152.9,89.6 L 153.8,89.6 L 154.7,89.6 L 155.6,89.7 L 156.5,89.7 L 157.4,89.7 L 158.3,89.8 L 159.2,89.8 L 160.2,89.8 L 161.1,89.8 L 162.0,89.8 L 162.9,89.9 L 163.8,89.9 L 164.7,89.9 L 165.6,89.9 L 166.5,89.9 L 167.4,89.9 L 168.3,89.9 L 169.2,89.9 L 170.1,89.9 L 171.0,89.9 L 171.9,90.0 L 172.8,90.0 L 173.7,90.0 L 174.6,90.0 L 175.5,90.0 L 176.4,90.0 L 177.3,90.0 L 178.2,90.0 L 179.1,90.0 L 180.1,90.0 L 181.0,90.0 L 181.9,90.0 L 182.8,90.0 L 183.7,90.0 L 184.6,90.0 L 185.5,90.0 L 186.4,90.0 L 187.3,90.0 L 188.2,90.0 L 189.1,90.0 L 190.0,90.0" fill="none" stroke="#2563eb" stroke-width="2"
        stroke-linecap="round" stroke-linejoin="round"/>
</svg>