<?xml version="1.0" encoding="UTF-8"?>
<svg width="200" height="100" viewBox="0 0 200 100"
     xmlns="http://www.w3.org/2000/svg">
  <!-- Shape path -->
  <path d="M 10.0,50.0 L 11.8,50.0 L 13.6,50.0 L 15.5,50.0 L 17.3,50.0 L 19.1,50.0 L 20.9,50.0 L 22.7,50.0 L 24.5,50.0 L 26.4,50.0 L 28.2,50.1 L 30.0,50.1 L 31.8,50.1 L 33.6,50.1 L 35.5,50.1 L 37.3,50.2 L 39.1,50.2 L 40.9,50.2 L 42.7,50.3 L 44.5,50.3 L 46.4,50.4 L 48.2,50.5 L 50.0,50.6 L 51.8,50.8 L 53.6,50.9 L 55.5,51.1 L 57.3,51.4 L 59.1,51.7 L 60.9,52.1 L 62.7,52.5 L 64.5,53.1 L 66.4,53.8 L 68.2,54.7 L 70.0,55.7 L 71.8,57.0 L 73.6,58.5 L 75.5,60.3 L 77.3,62.6 L 79.1,65.2 L 80.9,68.4 L 82.7,72.0 L 84.5,76.1 L 86.4,80.5 L 88.2,84.7 L 90.0,88.3 L 91.8,90.0 L 93.6,88.7 L 95.5,83.0 L 97.3,72.5 L 99.1,58.0 L 100.9,42.0 L 102.7,27.5 L 104.5,17.0 L 106.4,11.3 L 108.2,10.0 L 110.0,11.7 L 111.8,15.3 L 113.6,19.5 L 115.5,23.9 L 117.3,28.0 L 119.1,31.6 L 120.9,34.8 L 122.7,37.4 L 124.5,39.7 L 126.4,41.5 L 128.2,43.0 L 130.0,44.3 L 131.8,45.3 L 133.6,46.2 L 135.5,46.9 L 137.3,47.5 L 139.1,47.9 L 140.9,48.3 L 142.7,48.6 L 144.5,48.9 L 146.4,49.1 L 148.2,49.2 L 150.0,49.4 L 151.8,49.5 L 153.6,49.6 L 155.5,49.7 L 157.3,49.7 L 159.1,49.8 L 160.9,49.8 L 162.7,49.8 L 164.5,49.9 L 166.4,49.9 L 168.2,49.9 L 170.0,49.9 L 171.8,49.9 L 173.6,50.0 L 175.5,50.0 L 177.3,50.0 L 179.1,50.0 L 180.9,50.0 L 182.7,50.0 L 184.5,50.0 L 186.4,50.0 L 188.2,50.0 L 190.0,50.0" fill="none" stroke="#2563eb" stroke-width="2"
        stroke-linecap="round" stroke-linejoin="round"/>
</svg>