<?xml version="1.0" encoding="UTF-8"?>
<svg width="200" height="100" viewBox="0 0 200 100"
     xmlns="http://www.w3.org/2000/svg">
  <!-- Shape path -->
  <path d="M 10.0,90.0 L 10.9,90.0 L 11.8,90.0 L 12.7,90.0 L 13.6,90.0 L 14.5,90.0 L 15.4,90.0 L 16.3,90.0 L 17.2,90.0 L 18.1,89.9 L 19.0,89.9 L 19.9,89.9 L 20.9,89.9 L 21.8,89.9 L 22.7,89.8 L 23.6,89.8 L 24.5,89.7 L 25.4,89.7 L 26.3,89.6 L 27.2,89.6 L 28.1,89.5 L 29.0,89.4 L 29.9,89.4 L 30.8,89.3 L 31.7,89.2 L 32.6,89.1 L 33.5,89.1 L 34.4,89.0 L 35.3,88.9 L 36.2,88.8 L 37.1,88.8 L 38.0,88.7 L 38.9,88.7 L 39.8,88.7 L 40.8,88.7 L 41.7,88.7 L 42.6,88.8 L 43.5,89.0 L 44.4,89.1 L 45.3,89.4 L 46.2,89.7 L 47.1,90.0 L 48.0,89.5 L 48.9,89.0 L 49.8,88.4 L 50.7,87.6 L 51.6,86.8 L 52.5,85.9 L 53.4,84.9 L 54.3,83.8 L 55.2,82.6 L 56.1,81.3 L 57.0,79.9 L 57.9,78.5 L 58.8,76.9 L 59.7,75.3 L 60.7,73.7 L 61.6,72.1 L 62.5,70.5 L 63.4,68.9 L 64.3,67.3 L 65.2,65.9 L 66.1,64.5 L 67.0,63.3 L 67.9,62.3 L 68.8,61.4 L 69.7,60.9 L 70.6,60.5 L 71.5,60.5 L 72.4,60.9 L 73.3,61.5 L 74.2,62.6 L 75.1,64.0 L 76.0,65.9 L 76.9,68.2 L 77.8,70.8 L 78.7,73.9 L 79.6,77.4 L 80.6,81.3 L 81.5,85.6 L 82.4,89.8 L 83.3,84.9 L 84.2,79.8 L 85.1,74.5 L 86.0,69.0 L 86.9,63.4 L 87.8,57.8 L 88.7,52.2 L 89.6,46.7 L 90.5,41.3 L 91.4,36.2 L 92.3,31.4 L 93.2,27.0 L 94.1,22.9 L 95.0,19.4 L 95.9,16.3 L 96.8,13.8 L 97.7,11.9 L 98.6,10.6 L 99.5,10.0 L 100.5,10.0 L 101.4,10.6 L 102.3,11.9 L 103.2,13.8 L 104.1,16.3 L 105.0,19.4 L 105.9,22.9 L 106.8,27.0 L 107.7,31.4 L 108.6,36.2 L 109.5,41.3 L 110.4,46.7 L 111.3,52.2 L 112.2,57.8 L 113.1,63.4 L 114.0,69.0 L 114.9,74.5 L 115.8,79.8 L 116.7,84.9 L 117.6,89.8 L 118.5,85.6 L 119.4,81.3 L 120.4,77.4 L 121.3,73.9 L 122.2,70.8 L 123.1,68.2 L 124.0,65.9 L 124.9,64.0 L 125.8,62.6 L 126.7,61.5 L 127.6,60.9 L 128.5,60.5 L 129.4,60.5 L 130.3,60.9 L 131.2,61.4 L 132.1,62.3 L 133.0,63.3 L 133.9,64.5 L 134.8,65.9 L 135.7,67.3 L 136.6,68.9 L 137.5,70.5 L 138.4,72.1 L 139.3,73.7 L 140.3,75.3 L 141.2,76.9 L 142.1,78.5 L 143.0,79.9 L 143.9,81.3 L 144.8,82.6 L 145.7,83.8 L 146.6,84.9 L 147.5,85.9 L 148.4,86.8 L 149.3,87.6 L 150.2,88.4 L 151.1,89.0 L 152.0,89.5 L 152.9,90.0 L 153.8,89.7 L 154.7,89.4 L 155.6,89.1 L 156.5,89.0 L 157.4,88.8 L 158.3,88.7 L 159.2,88.7 L 160.2,88.7 L 161.1,88.7 L 162.0,88.7 L 162.9,88.8 L 163.8,88.8 L 164.7,88.9 L 165.6,89.0 L 166.5,89.1 L 167.4,89.1 L 168.3,89.2 L 169.2,89.3 L 170.1,89.4 L 171.0,89.4 L 171.9,89.5 L 172.8,89.6 L 173.7,89.6 L 174.6,89.7 L 175.5,89.7 L 176.4,89.8 L 177.3,89.8 L 178.2,89.9 L 179.1,89.9 L 180.1,89.9 L 181.0,89.9 L 181.9,89.9 L 182.8,90.0 L 183.7,90.0 L 184.6,90.0 L 185.5,90.0 L 186.4,90.0 L 187.3,90.0 L 188.2,90.0 L 189.1,90.0 L 190.0,90.0" fill="none" stroke="#2563eb" stroke-width="2"
        stroke-linecap="round" stroke-linejoin="round"/>
</svg>