<?xml version="1.0" encoding="UTF-8"?>
<svg width="200" height="100" viewBox="0 0 200 100"
     xmlns="http://www.w3.org/2000/svg">
  <!-- Shape path -->
  <path d="M 10.0,90.0 L 11.8,90.0 L 13.6,90.0 L 15.5,35.0 L 17.3,35.0 L 19.1,35.0 L 20.9,35.0 L 22.7,35.0 L 24.5,90.0 L 26.4,90.0 L 28.2,90.0 L 30.0,90.0 L 31.8,90.0 L 33.6,90.0 L 35.5,90.0 L 37.3,11.9 L 39.1,11.9 L 40.9,11.9 L 42.7,11.9 L 44.5,11.9 L 46.4,90.0 L 48.2,90.0 L 50.0,90.0 L 51.8,90.0 L 53.6,90.0 L 55.5,90.0 L 57.3,90.0 L 59.1,90.0 L 60.9,10.0 L 62.7,10.0 L 64.5,10.0 L 66.4,10.0 L 68.2,10.0 L 70.0,90.0 L 71.8,90.0 L 73.6,90.0 L 75.5,90.0 L 77.3,90.0 L 79.1,90.0 L 80.9,90.0 L 82.7,31.1 L 84.5,31.1 L 86.4,31.1 L 88.2,31.1 L 90.0,31.1 L 91.8,90.0 L 93.6,90.0 L 95.5,90.0 L 97.3,90.0 L 99.1,90.0 L 100.9,90.0 L 102.7,90.0 L 104.5,55.8 L 106.4,55.8 L 108.2,55.8 L 110.0,55.8 L 111.8,55.8 L 113.6,90.0 L 115.5,90.0 L 117.3,90.0 L 119.1,90.0 L 120.9,90.0 L 122.7,90.0 L 124.5,90.0 L 126.4,90.0 L 128.2,61.4 L 130.0,61.4 L 131.8,61.4 L 133.6,61.4 L 135.5,61.4 L 137.3,90.0 L 139.1,90.0 L 140.9,90.0 L 142.7,90.0 L 144.5,90.0 L 146.4,90.0 L 148.2,90.0 L 150.0,42.7 L 151.8,42.7 L 153.6,42.7 L 155.5,42.7 L 157.3,42.7 L 159.1,90.0 L 160.9,90.0 L 162.7,90.0 L 164.5,90.0 L 166.4,90.0 L 168.2,90.0 L 170.0,90.0 L 171.8,90.0 L 173.6,16.9 L 175.5,16.9 L 177.3,16.9 L 179.1,16.9 L 180.9,16.9 L 182.7,90.0 L 184.5,90.0 L 186.4,90.0 L 188.2,90.0 L 190.0,90.0" fill="none" stroke="#2563eb" stroke-width="2"
        stroke-linecap="round" stroke-linejoin="round"/>
</svg>