<?xml version="1.0" encoding="UTF-8"?>
<svg width="200" height="100" viewBox="0 0 200 100"
     xmlns="http://www.w3.org/2000/svg">
  <!-- Shape path -->
  <path d="M 10.0,90.0 L 11.8,89.6 L 13.6,89.1 L 15.5,88.6 L 17.3,88.0 L 19.1,87.4 L 20.9,86.8 L 22.7,86.1 L 24.5,85.3 L 26.4,84.6 L 28.2,83.7 L 30.0,82.8 L 31.8,81.9 L 33.6,80.9 L 35.5,79.8 L 37.3,78.6 L 39.1,77.4 L 40.9,76.2 L 42.7,74.8 L 44.5,73.4 L 46.4,71.9 L 48.2,70.3 L 50.0,68.7 L 51.8,67.0 L 53.6,65.2 L 55.5,63.3 L 57.3,61.4 L 59.1,59.4 L 60.9,57.3 L 62.7,55.2 L 64.5,53.0 L 66.4,50.8 L 68.2,48.5 L 70.0,46.2 L 71.8,43.8 L 73.6,41.5 L 75.5,39.1 L 77.3,36.7 L 79.1,34.3 L 80.9,31.9 L 82.7,29.6 L 84.5,27.2 L 86.4,24.9 L 88.2,22.6 L 90.0,20.4 L 91.8,18.2 L 93.6,16.0 L 95.5,14.0 L 97.3,12.0 L 99.1,10.0 L 100.9,10.0 L 102.7,12.0 L 104.5,14.0 L 106.4,16.0 L 108.2,18.2 L 110.0,20.4 L 111.8,22.6 L 113.6,24.9 L 115.5,27.2 L 117.3,29.6 L 119.1,31.9 L 120.9,34.3 L 122.7,36.7 L 124.5,39.1 L 126.4,41.5 L 128.2,43.8 L 130.0,46.2 L 131.8,48.5 L 133.6,50.8 L 135.5,53.0 L 137.3,55.2 L 139.1,57.3 L 140.9,59.4 L 142.7,61.4 L 144.5,63.3 L 146.4,65.2 L 148.2,67.0 L 150.0,68.7 L 151.8,70.3 L 153.6,71.9 L 155.5,73.4 L 157.3,74.8 L 159.1,76.2 L 160.9,77.4 L 162.7,78.6 L 164.5,79.8 L 166.4,80.9 L 168.2,81.9 L 170.0,82.8 L 171.8,83.7 L 173.6,84.6 L 175.5,85.3 L 177.3,86.1 L 179.1,86.8 L 180.9,87.4 L 182.7,88.0 L 184.5,88.6 L 186.4,89.1 L 188.2,89.6 L 190.0,90.0" fill="none" stroke="#2563eb" stroke-width="2"
        stroke-linecap="round" stroke-linejoin="round"/>
</svg>