<?xml version="1.0" encoding="UTF-8"?>
<svg width="200" height="100" viewBox="0 0 200 100"
     xmlns="http://www.w3.org/2000/svg">
  <!-- Shape path -->
  <path d="M 10.0,90.0 L 11.8,89.5 L 13.6,89.0 L 15.5,88.4 L 17.3,87.7 L 19.1,87.0 L 20.9,86.2 L 22.7,85.3 L 24.5,84.4 L 26.4,83.3 L 28.2,82.2 L 30.0,81.0 L 31.8,79.8 L 33.6,78.4 L 35.5,76.9 L 37.3,75.3 L 39.1,73.7 L 40.9,71.9 L 42.7,70.1 L 44.5,68.1 L 46.4,66.1 L 48.2,64.0 L 50.0,61.8 L 51.8,59.5 L 53.6,57.2 L 55.5,54.7 L 57.3,52.3 L 59.1,49.8 L 60.9,47.3 L 62.7,44.7 L 64.5,42.1 L 66.4,39.6 L 68.2,37.0 L 70.0,34.5 L 71.8,32.1 L 73.6,29.7 L 75.5,27.3 L 77.3,25.1 L 79.1,23.0 L 80.9,21.0 L 82.7,19.1 L 84.5,17.3 L 86.4,15.8 L 88.2,14.4 L 90.0,13.1 L 91.8,12.1 L 93.6,11.3 L 95.5,10.6 L 97.3,10.2 L 99.1,10.0 L 100.9,10.0 L 102.7,10.2 L 104.5,10.6 L 106.4,11.3 L 108.2,12.1 L 110.0,13.1 L 111.8,14.4 L 113.6,15.8 L 115.5,17.3 L 117.3,19.1 L 119.1,21.0 L 120.9,23.0 L 122.7,25.1 L 124.5,27.3 L 126.4,29.7 L 128.2,32.1 L 130.0,34.5 L 131.8,37.0 L 133.6,39.6 L 135.5,42.1 L 137.3,44.7 L 139.1,47.3 L 140.9,49.8 L 142.7,52.3 L 144.5,54.7 L 146.4,57.2 L 148.2,59.5 L 150.0,61.8 L 151.8,64.0 L 153.6,66.1 L 155.5,68.1 L 157.3,70.1 L 159.1,71.9 L 160.9,73.7 L 162.7,75.3 L 164.5,76.9 L 166.4,78.4 L 168.2,79.8 L 170.0,81.0 L 171.8,82.2 L 173.6,83.3 L 175.5,84.4 L 177.3,85.3 L 179.1,86.2 L 180.9,87.0 L 182.7,87.7 L 184.5,88.4 L 186.4,89.0 L 188.2,89.5 L 190.0,90.0" fill="none" stroke="#2563eb" stroke-width="2"
        stroke-linecap="round" stroke-linejoin="round"/>
</svg>