<?xml version="1.0" encoding="UTF-8"?>
<svg width="200" height="100" viewBox="0 0 200 100"
     xmlns="http://www.w3.org/2000/svg">
  <!-- Shape path -->
  <path d="M 10.0,77.1 L 11.8,77.2 L 13.6,77.3 L 15.5,77.4 L 17.3,77.5 L 19.1,77.5 L 20.9,77.5 L 22.7,77.4 L 24.5,77.2 L 26.4,76.9 L 28.2,76.7 L 30.0,76.4 L 31.8,76.2 L 33.6,76.1 L 35.5,76.1 L 37.3,76.4 L 39.1,76.8 L 40.9,77.5 L 42.7,78.2 L 44.5,78.9 L 46.4,79.5 L 48.2,79.8 L 50.0,79.7 L 51.8,79.2 L 53.6,78.1 L 55.5,76.8 L 57.3,75.1 L 59.1,73.5 L 60.9,72.2 L 62.7,71.4 L 64.5,71.4 L 66.4,72.4 L 68.2,74.3 L 70.0,77.1 L 71.8,80.5 L 73.6,84.0 L 75.5,87.2 L 77.3,89.4 L 79.1,90.0 L 80.9,88.6 L 82.7,85.0 L 84.5,79.0 L 86.4,70.8 L 88.2,60.9 L 90.0,50.0 L 91.8,38.8 L 93.6,28.4 L 95.5,19.7 L 97.3,13.3 L 99.1,10.0 L 100.9,10.0 L 102.7,13.3 L 104.5,19.7 L 106.4,28.4 L 108.2,38.8 L 110.0,50.0 L 111.8,60.9 L 113.6,70.8 L 115.5,79.0 L 117.3,85.0 L 119.1,88.6 L 120.9,90.0 L 122.7,89.4 L 124.5,87.2 L 126.4,84.0 L 128.2,80.5 L 130.0,77.1 L 131.8,74.3 L 133.6,72.4 L 135.5,71.4 L 137.3,71.4 L 139.1,72.2 L 140.9,73.5 L 142.7,75.1 L 144.5,76.8 L 146.4,78.1 L 148.2,79.2 L 150.0,79.7 L 151.8,79.8 L 153.6,79.5 L 155.5,78.9 L 157.3,78.2 L 159.1,77.5 L 160.9,76.8 L 162.7,76.4 L 164.5,76.1 L 166.4,76.1 L 168.2,76.2 L 170.0,76.4 L 171.8,76.7 L 173.6,76.9 L 175.5,77.2 L 177.3,77.4 L 179.1,77.5 L 180.9,77.5 L 182.7,77.5 L 184.5,77.4 L 186.4,77.3 L 188.2,77.2 L 190.0,77.1" fill="none" stroke="#2563eb" stroke-width="2"
        stroke-linecap="round" stroke-linejoin="round"/>
</svg>