<?xml version="1.0" encoding="UTF-8"?>
<svg width="200" height="100" viewBox="0 0 200 100"
     xmlns="http://www.w3.org/2000/svg">
  <!-- Shape path -->
  <path d="M 10.0,60.1 L 11.8,60.7 L 13.6,61.4 L 15.5,62.0 L 17.3,62.7 L 19.1,63.5 L 20.9,64.2 L 22.7,65.0 L 24.5,65.9 L 26.4,66.7 L 28.2,67.7 L 30.0,68.6 L 31.8,69.6 L 33.6,70.6 L 35.5,71.7 L 37.3,72.8 L 39.1,73.9 L 40.9,75.1 L 42.7,76.3 L 44.5,77.4 L 46.4,78.7 L 48.2,79.9 L 50.0,81.1 L 51.8,82.3 L 53.6,83.4 L 55.5,84.6 L 57.3,85.6 L 59.1,86.6 L 60.9,87.6 L 62.7,88.4 L 64.5,89.0 L 66.4,89.5 L 68.2,89.9 L 70.0,90.0 L 71.8,89.9 L 73.6,89.5 L 75.5,88.9 L 77.3,87.9 L 79.1,86.7 L 80.9,85.1 L 82.7,83.1 L 84.5,80.8 L 86.4,78.2 L 88.2,75.2 L 90.0,71.9 L 91.8,68.4 L 93.6,64.5 L 95.5,60.5 L 97.3,56.4 L 99.1,52.1 L 100.9,47.9 L 102.7,43.6 L 104.5,39.5 L 106.4,35.5 L 108.2,31.6 L 110.0,28.1 L 111.8,24.8 L 113.6,21.8 L 115.5,19.2 L 117.3,16.9 L 119.1,14.9 L 120.9,13.3 L 122.7,12.1 L 124.5,11.1 L 126.4,10.5 L 128.2,10.1 L 130.0,10.0 L 131.8,10.1 L 133.6,10.5 L 135.5,11.0 L 137.3,11.6 L 139.1,12.4 L 140.9,13.4 L 142.7,14.4 L 144.5,15.4 L 146.4,16.6 L 148.2,17.7 L 150.0,18.9 L 151.8,20.1 L 153.6,21.3 L 155.5,22.6 L 157.3,23.7 L 159.1,24.9 L 160.9,26.1 L 162.7,27.2 L 164.5,28.3 L 166.4,29.4 L 168.2,30.4 L 170.0,31.4 L 171.8,32.3 L 173.6,33.3 L 175.5,34.1 L 177.3,35.0 L 179.1,35.8 L 180.9,36.5 L 182.7,37.3 L 184.5,38.0 L 186.4,38.6 L 188.2,39.3 L 190.0,39.9" fill="none" stroke="#2563eb" stroke-width="2"
        stroke-linecap="round" stroke-linejoin="round"/>
</svg>