<?xml version="1.0" encoding="UTF-8"?>
<svg width="200" height="100" viewBox="0 0 200 100"
     xmlns="http://www.w3.org/2000/svg">
  <!-- Shape path -->
  <path d="M 10.0,90.0 L 10.9,81.8 L 11.8,77.6 L 12.7,74.0 L 13.6,70.5 L 14.5,67.3 L 15.4,64.2 L 16.3,61.4 L 17.2,58.9 L 18.1,56.7 L 19.0,54.9 L 19.9,53.4 L 20.9,52.4 L 21.8,51.8 L 22.7,51.6 L 23.6,51.8 L 24.5,52.4 L 25.4,53.4 L 26.3,54.7 L 27.2,56.3 L 28.1,58.0 L 29.0,59.9 L 29.9,61.8 L 30.8,63.8 L 31.7,65.6 L 32.6,67.3 L 33.5,68.7 L 34.4,69.8 L 35.3,70.6 L 36.2,70.9 L 37.1,70.8 L 38.0,70.2 L 38.9,69.2 L 39.8,67.6 L 40.8,65.6 L 41.7,63.2 L 42.6,60.4 L 43.5,57.2 L 44.4,53.8 L 45.3,50.1 L 46.2,46.3 L 47.1,42.5 L 48.0,38.8 L 48.9,35.2 L 49.8,31.8 L 50.7,28.7 L 51.6,26.0 L 52.5,23.8 L 53.4,22.0 L 54.3,20.9 L 55.2,20.2 L 56.1,20.2 L 57.0,20.8 L 57.9,21.9 L 58.8,23.6 L 59.7,25.8 L 60.7,28.5 L 61.6,31.5 L 62.5,34.8 L 63.4,38.3 L 64.3,41.9 L 65.2,45.6 L 66.1,49.2 L 67.0,52.5 L 67.9,55.6 L 68.8,58.4 L 69.7,60.7 L 70.6,62.5 L 71.5,63.7 L 72.4,64.3 L 73.3,64.4 L 74.2,63.7 L 75.1,62.5 L 76.0,60.6 L 76.9,58.2 L 77.8,55.3 L 78.7,51.9 L 79.6,48.2 L 80.6,44.2 L 81.5,40.0 L 82.4,35.8 L 83.3,31.5 L 84.2,27.5 L 85.1,23.6 L 86.0,20.1 L 86.9,17.0 L 87.8,14.4 L 88.7,12.3 L 89.6,10.9 L 90.5,10.1 L 91.4,10.0 L 92.3,10.6 L 93.2,11.8 L 94.1,13.6 L 95.0,16.0 L 95.9,19.0 L 96.8,22.3 L 97.7,26.1 L 98.6,30.1 L 99.5,34.3 L 100.5,34.3 L 101.4,30.1 L 102.3,26.1 L 103.2,22.3 L 104.1,19.0 L 105.0,16.0 L 105.9,13.6 L 106.8,11.8 L 107.7,10.6 L 108.6,10.0 L 109.5,10.1 L 110.4,10.9 L 111.3,12.3 L 112.2,14.4 L 113.1,17.0 L 114.0,20.1 L 114.9,23.6 L 115.8,27.5 L 116.7,31.5 L 117.6,35.8 L 118.5,40.0 L 119.4,44.2 L 120.4,48.2 L 121.3,51.9 L 122.2,55.3 L 123.1,58.2 L 124.0,60.6 L 124.9,62.5 L 125.8,63.7 L 126.7,64.4 L 127.6,64.3 L 128.5,63.7 L 129.4,62.5 L 130.3,60.7 L 131.2,58.4 L 132.1,55.6 L 133.0,52.5 L 133.9,49.2 L 134.8,45.6 L 135.7,41.9 L 136.6,38.3 L 137.5,34.8 L 138.4,31.5 L 139.3,28.5 L 140.3,25.8 L 141.2,23.6 L 142.1,21.9 L 143.0,20.8 L 143.9,20.2 L 144.8,20.2 L 145.7,20.9 L 146.6,22.0 L 147.5,23.8 L 148.4,26.0 L 149.3,28.7 L 150.2,31.8 L 151.1,35.2 L 152.0,38.8 L 152.9,42.5 L 153.8,46.3 L 154.7,50.1 L 155.6,53.8 L 156.5,57.2 L 157.4,60.4 L 158.3,63.2 L 159.2,65.6 L 160.2,67.6 L 161.1,69.2 L 162.0,70.2 L 162.9,70.8 L 163.8,70.9 L 164.7,70.6 L 165.6,69.8 L 166.5,68.7 L 167.4,67.3 L 168.3,65.6 L 169.2,63.8 L 170.1,61.8 L 171.0,59.9 L 171.9,58.0 L 172.8,56.3 L 173.7,54.7 L 174.6,53.4 L 175.5,52.4 L 176.4,51.8 L 177.3,51.6 L 178.2,51.8 L 179.1,52.4 L 180.1,53.4 L 181.0,54.9 L 181.9,56.7 L 182.8,58.9 L 183.7,61.4 L 184.6,64.2 L 185.5,67.3 L 186.4,70.5 L 187.3,74.0 L 188.2,77.6 L 189.1,81.8 L 190.0,90.0" fill="none" stroke="#2563eb" stroke-width="2"
        stroke-linecap="round" stroke-linejoin="round"/>
</svg>