<?xml version="1.0" encoding="UTF-8"?>
<svg width="200" height="100" viewBox="0 0 200 100"
     xmlns="http://www.w3.org/2000/svg">
  <!-- Shape path -->
  <path d="M 10.0,88.6 L 10.9,88.5 L 11.8,88.4 L 12.7,88.4 L 13.6,88.4 L 14.5,88.4 L 15.4,88.5 L 16.3,88.6 L 17.2,88.8 L 18.1,89.0 L 19.0,89.3 L 19.9,89.6 L 20.9,89.9 L 21.8,89.9 L 22.7,89.5 L 23.6,89.2 L 24.5,89.0 L 25.4,88.7 L 26.3,88.6 L 27.2,88.5 L 28.1,88.5 L 29.0,88.6 L 29.9,88.9 L 30.8,89.2 L 31.7,89.6 L 32.6,90.0 L 33.5,89.4 L 34.4,88.8 L 35.3,88.2 L 36.2,87.7 L 37.1,87.2 L 38.0,86.8 L 38.9,86.6 L 39.8,86.6 L 40.8,86.9 L 41.7,87.5 L 42.6,88.4 L 43.5,89.6 L 44.4,89.0 L 45.3,87.1 L 46.2,84.8 L 47.1,82.4 L 48.0,79.7 L 48.9,76.8 L 49.8,73.9 L 50.7,71.0 L 51.6,68.2 L 52.5,65.7 L 53.4,63.4 L 54.3,61.6 L 55.2,60.3 L 56.1,59.5 L 57.0,59.4 L 57.9,60.0 L 58.8,61.2 L 59.7,63.2 L 60.7,65.8 L 61.6,68.9 L 62.5,72.5 L 63.4,76.5 L 64.3,80.8 L 65.2,85.1 L 66.1,89.3 L 67.0,86.9 L 67.9,83.3 L 68.8,80.2 L 69.7,77.8 L 70.6,76.2 L 71.5,75.4 L 72.4,75.5 L 73.3,76.5 L 74.2,78.3 L 75.1,80.8 L 76.0,84.0 L 76.9,87.6 L 77.8,88.6 L 78.7,84.6 L 79.6,80.7 L 80.6,77.2 L 81.5,74.3 L 82.4,72.2 L 83.3,71.1 L 84.2,71.1 L 85.1,72.3 L 86.0,74.7 L 86.9,78.5 L 87.8,83.5 L 88.7,89.6 L 89.6,83.3 L 90.5,75.4 L 91.4,66.9 L 92.3,58.1 L 93.2,49.3 L 94.1,40.7 L 95.0,32.8 L 95.9,25.7 L 96.8,19.6 L 97.7,14.9 L 98.6,11.7 L 99.5,10.0 L 100.5,10.0 L 101.4,11.7 L 102.3,14.9 L 103.2,19.6 L 104.1,25.7 L 105.0,32.8 L 105.9,40.7 L 106.8,49.3 L 107.7,58.1 L 108.6,66.9 L 109.5,75.4 L 110.4,83.3 L 111.3,89.6 L 112.2,83.5 L 113.1,78.5 L 114.0,74.7 L 114.9,72.3 L 115.8,71.1 L 116.7,71.1 L 117.6,72.2 L 118.5,74.3 L 119.4,77.2 L 120.4,80.7 L 121.3,84.6 L 122.2,88.6 L 123.1,87.6 L 124.0,84.0 L 124.9,80.8 L 125.8,78.3 L 126.7,76.5 L 127.6,75.5 L 128.5,75.4 L 129.4,76.2 L 130.3,77.8 L 131.2,80.2 L 132.1,83.3 L 133.0,86.9 L 133.9,89.3 L 134.8,85.1 L 135.7,80.8 L 136.6,76.5 L 137.5,72.5 L 138.4,68.9 L 139.3,65.8 L 140.3,63.2 L 141.2,61.2 L 142.1,60.0 L 143.0,59.4 L 143.9,59.5 L 144.8,60.3 L 145.7,61.6 L 146.6,63.4 L 147.5,65.7 L 148.4,68.2 L 149.3,71.0 L 150.2,73.9 L 151.1,76.8 L 152.0,79.7 L 152.9,82.4 L 153.8,84.8 L 154.7,87.1 L 155.6,89.0 L 156.5,89.6 L 157.4,88.4 L 158.3,87.5 L 159.2,86.9 L 160.2,86.6 L 161.1,86.6 L 162.0,86.8 L 162.9,87.2 L 163.8,87.7 L 164.7,88.2 L 165.6,88.8 L 166.5,89.4 L 167.4,90.0 L 168.3,89.6 L 169.2,89.2 L 170.1,88.9 L 171.0,88.6 L 171.9,88.5 L 172.8,88.5 L 173.7,88.6 L 174.6,88.7 L 175.5,89.0 L 176.4,89.2 L 177.3,89.5 L 178.2,89.9 L 179.1,89.9 L 180.1,89.6 L 181.0,89.3 L 181.9,89.0 L 182.8,88.8 L 183.7,88.6 L 184.6,88.5 L 185.5,88.4 L 186.4,88.4 L 187.3,88.4 L 188.2,88.4 L 189.1,88.5 L 190.0,88.6" fill="none" stroke="#2563eb" stroke-width="2"
        stroke-linecap="round" stroke-linejoin="round"/>
</svg>