<?xml version="1.0" encoding="UTF-8"?>
<svg width="200" height="100" viewBox="0 0 200 100"
     xmlns="http://www.w3.org/2000/svg">
  <!-- Shape path -->
  <path d="M 10.0,90.0 L 11.8,90.0 L 13.6,90.0 L 15.5,90.0 L 17.3,89.9 L 19.1,89.9 L 20.9,89.8 L 22.7,89.8 L 24.5,89.7 L 26.4,89.6 L 28.2,89.5 L 30.0,89.3 L 31.8,89.2 L 33.6,89.0 L 35.5,88.9 L 37.3,88.7 L 39.1,88.6 L 40.9,88.5 L 42.7,88.4 L 44.5,88.4 L 46.4,88.5 L 48.2,88.6 L 50.0,88.7 L 51.8,88.7 L 53.6,88.7 L 55.5,88.5 L 57.3,88.1 L 59.1,87.3 L 60.9,86.0 L 62.7,84.1 L 64.5,81.5 L 66.4,78.0 L 68.2,73.7 L 70.0,68.6 L 71.8,62.6 L 73.6,55.9 L 75.5,48.8 L 77.3,41.4 L 79.1,34.1 L 80.9,27.1 L 82.7,20.9 L 84.5,15.9 L 86.4,12.2 L 88.2,10.2 L 90.0,10.0 L 91.8,11.7 L 93.6,15.1 L 95.5,20.2 L 97.3,26.6 L 99.1,33.9 L 100.9,41.8 L 102.7,49.9 L 104.5,57.6 L 106.4,64.7 L 108.2,70.7 L 110.0,75.5 L 111.8,78.9 L 113.6,81.0 L 115.5,81.7 L 117.3,81.4 L 119.1,80.1 L 120.9,78.2 L 122.7,76.0 L 124.5,73.7 L 126.4,71.6 L 128.2,69.8 L 130.0,68.6 L 131.8,67.9 L 133.6,67.9 L 135.5,68.4 L 137.3,69.5 L 139.1,71.0 L 140.9,72.8 L 142.7,74.7 L 144.5,76.8 L 146.4,78.8 L 148.2,80.8 L 150.0,82.5 L 151.8,84.1 L 153.6,85.5 L 155.5,86.6 L 157.3,87.5 L 159.1,88.2 L 160.9,88.8 L 162.7,89.2 L 164.5,89.5 L 166.4,89.7 L 168.2,89.8 L 170.0,89.9 L 171.8,89.9 L 173.6,90.0 L 175.5,90.0 L 177.3,90.0 L 179.1,90.0 L 180.9,90.0 L 182.7,90.0 L 184.5,90.0 L 186.4,90.0 L 188.2,90.0 L 190.0,90.0" fill="none" stroke="#2563eb" stroke-width="2"
        stroke-linecap="round" stroke-linejoin="round"/>
</svg>